<svg xmlns="http://www.w3.org/2000/svg" width="512" height="512" viewBox="0 0 512 512" version="1.1">
	<path d="M 236 3.677 C 233.637 4.587, 229.941 8.247, 228.405 11.200 C 227.501 12.938, 227 17.126, 227 22.950 L 227 32 202.556 32 C 178.161 32, 178.106 32.005, 175.306 34.412 L 172.500 36.825 172.204 73.912 L 171.908 111 191.579 111 L 211.250 111 210.678 108.140 C 208.226 95.878, 209.236 86.547, 214.129 76.254 C 222.941 57.718, 243.614 46.661, 263.362 49.923 C 288.963 54.151, 307.045 78.507, 303.016 103.334 C 302.465 106.725, 302.012 109.838, 302.008 110.250 C 302.003 110.662, 310.550 111, 321 111 L 340 111 340 75.047 C 340 50.828, 339.638 38.299, 338.890 36.657 C 336.956 32.413, 334.343 32, 309.453 32 L 286 32 286 23.468 C 286 14.006, 284.697 9.829, 280.551 6 C 277.867 3.521, 277.673 3.498, 257.672 3.300 C 246.577 3.190, 236.825 3.360, 236 3.677 M 510.232 7 C 510.232 8.925, 510.438 9.713, 510.689 8.750 C 510.941 7.787, 510.941 6.213, 510.689 5.250 C 510.438 4.287, 510.232 5.075, 510.232 7 M 238.571 14.571 C 237.407 15.736, 237 18.197, 237 24.071 L 237 32 256 32 L 275 32 275 24.071 C 275 12.789, 275.363 13, 256 13 C 242.918 13, 239.868 13.275, 238.571 14.571 M 16.750 18.080 C 14.180 19.577, 12 24.382, 12 28.550 C 12 31.368, 12.775 32.975, 15.400 35.600 L 18.800 39 47.004 39 L 75.207 39 72.104 35.465 C 67.819 30.585, 67.739 24.561, 71.901 20.106 L 74.802 17 46.651 17.030 C 29.397 17.049, 17.823 17.455, 16.750 18.080 M 12 74.326 C 12 111.501, 12.077 113.077, 13.975 114.975 C 15.061 116.061, 16.973 117.199, 18.225 117.505 C 19.476 117.811, 33.325 117.935, 49 117.780 L 77.500 117.500 77.500 79.500 L 77.500 41.500 47.329 41 L 17.158 40.500 14.579 38.076 L 12 35.651 12 74.326 M 245 55.603 C 233.381 58.712, 222.637 67.734, 217.420 78.761 C 204.092 106.934, 224.640 140, 255.475 140 C 268.412 140, 278.429 135.594, 287.472 125.927 C 302.648 109.702, 302.468 83.949, 287.065 67.662 C 276.154 56.126, 260.172 51.544, 245 55.603 M 24.190 58.750 C 24.495 60.337, 26.410 60.525, 44.763 60.771 C 64.492 61.035, 65 60.991, 65 59.021 C 65 57.059, 64.404 57, 44.427 57 C 25.372 57, 23.878 57.129, 24.190 58.750 M 247.500 59.870 C 218.877 67.440, 208.996 102.628, 229.684 123.316 C 232.296 125.928, 236.923 129.288, 239.967 130.782 C 244.920 133.215, 246.600 133.500, 256 133.500 C 264.699 133.500, 267.315 133.124, 271.251 131.306 C 277.844 128.261, 286.105 120.129, 289.577 113.266 C 292.248 107.986, 292.494 106.614, 292.497 96.984 C 292.500 87.115, 292.298 86.058, 289.213 79.787 C 283.157 67.475, 271.831 60.090, 258 59.433 C 253.875 59.237, 249.150 59.434, 247.500 59.870 M 255 69.961 C 255 72.546, 254.515 73.054, 251.185 73.950 C 245.356 75.520, 242.500 79.158, 242.500 85.015 C 242.500 89.037, 243.014 90.412, 245.500 93.039 C 247.150 94.782, 250.975 97.399, 254 98.854 C 259.309 101.408, 259.500 101.639, 259.500 105.500 C 259.500 108.929, 259.167 109.547, 257.168 109.830 C 254.414 110.220, 251 107.461, 251 104.845 C 251 103.298, 250.193 103, 246 103 C 241.169 103, 241 103.096, 241 105.852 C 241 110.290, 244.946 115.284, 249.783 116.969 C 253.376 118.221, 254 118.850, 254 121.219 C 254 123.519, 254.433 124, 256.500 124 C 258.587 124, 259 123.525, 259 121.125 C 259 118.725, 259.500 118.150, 262.026 117.645 C 268.747 116.301, 272.512 108.553, 269.706 101.839 C 268.330 98.546, 264.402 95.362, 256.035 90.760 C 253.342 89.278, 252.918 88.535, 253.186 85.760 C 253.429 83.233, 254.018 82.427, 255.805 82.173 C 258.615 81.775, 261 83.588, 261 86.122 C 261 87.709, 261.775 88, 266 88 C 270.693 88, 271 87.843, 271 85.450 C 271 81.239, 268.291 77.299, 264.048 75.343 C 260.596 73.751, 260.048 73.057, 260.026 70.250 C 260.004 67.457, 259.649 67, 257.500 67 C 255.396 67, 255 67.469, 255 69.961 M 24.500 77 C 22.915 79.565, 25.899 80, 45.059 80 C 64.333 80, 65 79.933, 65 78 C 65 76.067, 64.333 76, 45.059 76 C 32.844 76, 24.879 76.387, 24.500 77 M 24.667 95.667 C 24.300 96.033, 24 96.933, 24 97.667 C 24 98.734, 28.083 99, 44.500 99 C 64.333 99, 65 98.935, 65 97 C 65 95.067, 64.333 95, 45.167 95 C 34.258 95, 25.033 95.300, 24.667 95.667 M 172.189 138.967 C 172.462 155.585, 172.721 158.154, 174.286 159.717 C 175.969 161.398, 180.623 161.500, 255.508 161.500 L 334.944 161.500 337.222 159.224 C 339.401 157.047, 339.514 156.146, 339.829 138.474 L 340.159 120 318.661 120 L 297.163 120 295.037 123.441 C 291.893 128.527, 282.210 136.988, 276.500 139.639 C 265.614 144.691, 250.950 145.249, 239.775 141.034 C 231.968 138.090, 223.214 131.422, 219 125.211 L 215.500 120.052 193.689 120.026 L 171.879 120 172.189 138.967 M 87.666 142.747 C 84.813 147.458, 2.018 327.596, 2.335 328.402 C 2.653 329.212, 70.586 361.953, 77.555 364.655 C 78.136 364.880, 80.556 360.775, 82.933 355.532 C 85.311 350.290, 87.639 346, 88.107 346 C 89.015 346, 115.709 381.079, 116.633 383.486 C 116.946 384.302, 114.748 388.025, 111.499 392.176 C 101.632 404.786, 99.537 411.456, 102.375 421.217 C 106.666 435.978, 120.549 443.456, 134.462 438.501 C 136.641 437.725, 138.545 437.212, 138.695 437.361 C 138.844 437.510, 138.523 439.175, 137.983 441.060 C 135.044 451.307, 140.037 461.917, 149.839 466.253 C 155.707 468.849, 165.512 468.752, 171.649 466.037 C 174.182 464.917, 176.310 464.001, 176.377 464.002 C 176.445 464.004, 176.500 467.341, 176.500 471.419 C 176.500 478.064, 176.815 479.281, 179.542 483.158 C 184.580 490.323, 193.310 493.968, 201.937 492.511 C 204.103 492.145, 208.411 490.318, 211.510 488.452 L 217.146 485.058 216.497 488.012 C 215.492 492.588, 218.398 501.039, 222.209 504.626 C 231.458 513.331, 242.037 512.927, 254.549 503.393 L 257.597 501.070 264.049 503.749 C 273.579 507.708, 282.874 507.602, 289.574 503.460 C 292.279 501.788, 296.883 497.437, 299.806 493.793 L 305.120 487.166 309.373 489.047 C 315.234 491.639, 324.670 494, 329.173 494 C 339.969 494, 350.591 485.880, 356.835 472.853 L 360.500 465.206 369 464.841 C 378.903 464.416, 384.822 461.943, 391.200 455.565 C 395.848 450.916, 398.527 446.012, 400.383 438.749 L 401.725 433.500 408.112 432.728 C 417.241 431.626, 426.136 427.034, 430.956 420.937 C 436.488 413.938, 438.340 407.622, 437.792 397.633 C 437.234 387.481, 434.965 382.779, 426.565 374.380 L 420.405 368.220 423.921 361.110 C 425.855 357.200, 427.712 354, 428.048 354 C 428.383 354, 429.725 356.279, 431.030 359.064 C 432.666 362.556, 433.883 363.995, 434.951 363.700 C 439.171 362.532, 510.842 328.553, 510.443 327.909 C 510.190 327.498, 490.637 285.877, 466.994 235.417 C 443.350 184.957, 423.796 143.462, 423.539 143.206 C 422.967 142.634, 348.121 177.995, 347.386 179.184 C 347.097 179.652, 349.390 185.479, 352.481 192.133 C 355.571 198.788, 357.950 204.383, 357.767 204.566 C 357.584 204.749, 349.574 204.019, 339.967 202.945 C 311.605 199.772, 294.598 199.398, 275.102 201.518 C 258.800 203.291, 256.581 203.292, 207.872 201.565 C 180.167 200.583, 157.144 199.451, 156.709 199.049 C 156.274 198.647, 157.967 193.902, 160.472 188.506 C 162.977 183.109, 164.908 178.586, 164.763 178.454 C 164.618 178.323, 148.075 170.470, 128 161.004 C 107.925 151.537, 90.740 143.388, 89.811 142.893 C 88.882 142.399, 87.916 142.333, 87.666 142.747 M 122.175 271.139 C 108.278 300.915, 97.040 325.906, 97.203 326.674 C 97.367 327.441, 105.280 337.653, 114.789 349.368 L 132.078 370.666 137.289 368.866 C 144.732 366.294, 153.497 366.465, 158.465 369.278 C 167.082 374.159, 171.230 387.006, 167.616 397.615 C 165.429 404.031, 165.470 404.120, 169.750 402.327 C 171.813 401.463, 176.272 400.755, 179.659 400.753 C 187.375 400.749, 193.145 403.695, 197.456 409.840 C 200.280 413.866, 200.500 414.806, 200.500 422.840 L 200.500 431.500 210.160 431.500 C 219.285 431.500, 220.059 431.667, 224.106 434.509 C 230.454 438.967, 233.500 445.539, 233.500 454.775 C 233.500 461.624, 233.631 462.066, 235.500 461.538 C 248.868 457.763, 258.413 462.688, 263.494 475.984 C 266.393 483.572, 267.316 484.657, 272.021 486.006 C 277.828 487.672, 286 482.115, 286 476.500 C 286 473, 283.048 469.978, 263.103 453.061 C 252.834 444.351, 243.863 436.539, 243.167 435.702 C 242.472 434.864, 241.645 432.584, 241.328 430.636 C 240.839 427.618, 241.205 426.641, 243.800 424.046 C 246.052 421.795, 247.773 421, 250.398 421 C 253.500 421, 256.774 423.255, 276.225 438.793 C 305.693 462.332, 319.668 472.923, 322.859 474.136 C 329.073 476.499, 336.643 472.119, 339.564 464.472 C 341.175 460.253, 341.175 459.746, 339.559 455.514 C 338.017 451.479, 334.745 448.509, 306.990 425.960 C 290.020 412.172, 274.530 399.115, 272.567 396.943 C 268.012 391.901, 267.821 388.026, 271.923 383.923 C 277.571 378.275, 280.141 379.595, 307.500 402.203 C 345.986 434.005, 361.136 445.871, 364.081 446.518 C 368.687 447.530, 372.788 446.121, 377.054 442.064 C 380.623 438.668, 381 437.832, 381 433.305 C 381 429.381, 380.380 427.444, 378.130 424.338 C 376.551 422.158, 358.663 406.903, 338.380 390.438 C 318.096 373.973, 300.038 359.006, 298.250 357.179 C 291.889 350.678, 295.247 341, 303.864 341 C 308.577 341, 305.374 338.634, 357.179 380.380 C 378.256 397.364, 397.061 411.923, 398.970 412.735 C 408.331 416.716, 419 409.860, 419 399.865 C 419 391.906, 416.557 389.312, 382.108 360.689 C 315.428 305.287, 259.780 259.867, 257.535 259.013 C 254.695 257.934, 250.966 259.784, 244.179 265.642 C 240.037 269.217, 237.474 273.431, 225.440 296.460 C 217.773 311.133, 210.012 324.685, 208.194 326.577 C 202.774 332.215, 197.553 334.384, 189.500 334.343 C 177.826 334.282, 168.569 329.126, 163.518 319.870 C 161.074 315.390, 160.581 313.317, 160.544 307.362 C 160.494 299.244, 161.760 296.359, 179.138 265 C 192.750 240.435, 194.368 238.331, 206.501 229.429 C 212.294 225.179, 216.907 221.574, 216.753 221.419 C 216.435 221.102, 154.778 217, 150.321 217 C 147.497 217, 146.970 218.014, 122.175 271.139 M 510 506.434 C 510 509.412, 509.635 509.922, 507.250 510.284 C 504.690 510.671, 504.725 510.711, 507.750 510.850 C 510.900 510.995, 511 510.877, 511 507 C 511 504.800, 510.775 503, 510.500 503 C 510.225 503, 510 504.545, 510 506.434 M 1 510.387 C 1 510.599, 2.350 510.971, 4 511.213 C 5.650 511.455, 7 511.282, 7 510.827 C 7 510.372, 5.650 510, 4 510 C 2.350 510, 1 510.174, 1 510.387" stroke="none" fill="black" fill-rule="evenodd"/>
</svg>